<svg xmlns="http://www.w3.org/2000/svg" version="1.1" width="217" height="203" viewBox="114 108 217 203"><metadata><rdf:RDF xmlns:rdf="http://www.w3.org/1999/02/22-rdf-syntax-ns#" xmlns:dc="http://purl.org/dc/elements/1.1/"><rdf:Description><dc:creator>RealFaviconGenerator</dc:creator><dc:source>https://realfavicongenerator.net</dc:source></rdf:Description></rdf:RDF></metadata><path d="M0 0 C148.83 0 297.66 0 451 0 C451 138.6 451 277.2 451 420 C302.17 420 153.34 420 0 420 C0 281.4 0 142.8 0 0 Z " fill="#E3E7DF" transform="translate(0,0)"></path><path d="M0 0 C1.47726562 -0.0309375 1.47726562 -0.0309375 2.984375 -0.0625 C12.25725366 -0.11262367 12.25725366 -0.11262367 16 3.25 C20.00209255 7.79504602 19.49822885 13.06976792 19.4375 18.8125 C19.42614014 20.29206177 19.42614014 20.29206177 19.41455078 21.80151367 C19.11656255 35.00543742 14.9659111 45.74735755 5.375 55 C-3.11940044 62.00016556 -14.25119345 64.9734219 -25.0625 65.5 C-31.47052096 66.0771199 -35.48531134 69.29117478 -39.5703125 74.09765625 C-44.62047995 80.89373874 -44.77357641 87.02654641 -44 95.25 C-43.05925494 99.403965 -41.68938218 103.40820963 -40.2890625 107.42578125 C-37.85971168 114.49240851 -36.67375384 120.82131506 -36.75 128.3125 C-36.73839844 129.4581543 -36.73839844 129.4581543 -36.7265625 130.62695312 C-36.72914063 131.38041016 -36.73171875 132.13386719 -36.734375 132.91015625 C-36.73663086 133.57668213 -36.73888672 134.24320801 -36.74121094 134.92993164 C-37.10136824 138.15877579 -38.05548028 141.14888944 -39 144.25 C-37.69329346 144.23428955 -36.38658691 144.2185791 -35.0402832 144.20239258 C-30.18552836 144.1480328 -25.33080036 144.11362774 -20.47583008 144.08520508 C-18.37584914 144.07013228 -16.2758996 144.04967059 -14.17602539 144.02368164 C-11.15503176 143.98723246 -8.13445489 143.97025841 -5.11328125 143.95703125 C-4.17664139 143.94154739 -3.24000153 143.92606354 -2.27497864 143.91011047 C6.18841376 143.90793254 6.18841376 143.90793254 10 147.25 C11.17180914 151.20485583 11.4048133 153.31892942 9.75 157.125 C8 159.25 8 159.25 5 160.25 C3.41031126 160.34561092 1.81693223 160.38490013 0.22438049 160.39044189 C-1.24981857 160.39900711 -1.24981857 160.39900711 -2.75379944 160.40774536 C-3.83076584 160.40886322 -4.90773224 160.40998108 -6.01733398 160.41113281 C-7.15251465 160.41609772 -8.28769531 160.42106262 -9.45727539 160.42617798 C-13.22022096 160.44080812 -16.98312439 160.44760236 -20.74609375 160.453125 C-23.35539247 160.45887488 -25.96469118 160.46463263 -28.57398987 160.47039795 C-33.34758574 160.4799672 -38.12117248 160.48586559 -42.89477676 160.4888947 C-49.92094422 160.49337781 -56.94691737 160.51093957 -63.97302574 160.5398953 C-70.05936593 160.5641077 -76.1456258 160.57183851 -82.2320118 160.57357025 C-84.82163616 160.57660312 -87.41125959 160.58465286 -90.00085258 160.59775543 C-93.61847663 160.61475577 -97.23562402 160.61295037 -100.85327148 160.60644531 C-101.92821365 160.6156601 -103.00315582 160.62487488 -104.110672 160.6343689 C-105.0962912 160.62879974 -106.0819104 160.62323059 -107.09739685 160.61749268 C-107.95261146 160.61895924 -108.80782606 160.6204258 -109.68895626 160.6219368 C-112.52383117 160.1656952 -113.8983693 159.17202419 -116 157.25 C-116.78515625 155.3828125 -116.78515625 155.3828125 -117.0625 153.375 C-117.17722656 152.71757812 -117.29195312 152.06015625 -117.41015625 151.3828125 C-116.90098981 148.73514701 -115.80896232 147.1752357 -113.87049866 145.32141113 C-109.60233223 142.87662936 -104.24702438 143.6572315 -99.48046875 143.76171875 C-98.26676102 143.76879349 -97.05305328 143.77586823 -95.80256653 143.78315735 C-91.93024788 143.81112111 -88.05938083 143.87386909 -84.1875 143.9375 C-81.56056777 143.96258004 -78.93361286 143.98539371 -76.30664062 144.00585938 C-69.8705994 144.0609547 -63.43540341 144.14460345 -57 144.25 C-56.5064613 142.65678156 -56.0170157 141.06229481 -55.52929688 139.46728516 C-55.25629761 138.57949371 -54.98329834 137.69170227 -54.70202637 136.77700806 C-51.87824125 126.6125355 -54.51761757 117.14466581 -57.90625 107.55078125 C-59 104.25 -59 104.25 -59 101.25 C-59.79921875 101.4665625 -60.5984375 101.683125 -61.421875 101.90625 C-76.59890592 105.75394798 -89.59084111 105.08893864 -103.30078125 97.08984375 C-115.01168872 89.10744517 -121.65388153 77.8990507 -125 64.25 C-125.65737321 59.08789038 -126.03417998 54.78458965 -123.0625 50.375 C-111.1015434 42.07556072 -99.66925218 38.87572269 -85 40.25 C-72.02175605 42.99122814 -60.40424646 50.14363031 -53 61.25 C-52.4225 60.96125 -51.845 60.6725 -51.25 60.375 C-49.16666667 59.33333333 -47.08333333 58.29166667 -45 57.25 C-45.01571045 56.64639648 -45.0314209 56.04279297 -45.04760742 55.42089844 C-45.4385953 38.11184854 -45.47396066 24.58756418 -33.15234375 11.25 C-23.58202769 2.13167011 -12.71735436 0.06658301 0 0 Z " fill="#5E866C" transform="translate(274,129.75)"></path><path d="M0 0 C7.88841258 4.34571232 13.12332495 10.3828721 16.421875 18.8125 C16.609375 22.1875 16.609375 22.1875 16.421875 24.8125 C8.48261125 28.78213188 0.62108799 29.72182572 -8.0625 27.66015625 C-17.1755781 24.58944515 -23.06864544 19.27100992 -27.60546875 10.921875 C-29.23098809 7.47607363 -29.92318867 4.60820035 -29.578125 0.8125 C-19.73469678 -4.40009556 -10.21387882 -4.70457449 0 0 Z " fill="#DDE3DA" transform="translate(195.578125,189.1875)"></path><path d="M0 0 C0.81114805 16.04270588 0.81114805 16.04270588 -4 22 C-9.75709794 27.82660013 -14.7107239 31.83408795 -23.11328125 32.09765625 C-24.16902344 32.08605469 -25.22476563 32.07445312 -26.3125 32.0625 C-27.38113281 32.05347656 -28.44976562 32.04445312 -29.55078125 32.03515625 C-30.35902344 32.02355469 -31.16726562 32.01195312 -32 32 C-32.48481549 22.41142702 -32.59518094 15.61885986 -26.421875 8.0703125 C-18.50401558 -0.52520156 -11.2356056 -0.42075083 0 0 Z " fill="#DCE2D9" transform="translate(277,146)"></path></svg>